{"glyphs":{"0":{"ha":925,"x_min":0,"x_max":0,"o":"m 460 678 b 617 482 561 678 617 610 b 465 269 617 342 563 269 b 310 467 360 269 310 339 b 460 678 310 607 365 678 z m 467 965 b 31 454 228 965 31 796 b 458 -19 31 151 197 -19 b 894 496 697 -19 894 153 b 467 965 894 797 729 965 z "},"1":{"ha":460,"x_min":0,"x_max":0,"o":"m 390 497 l 396 971 l 382 971 l 7 775 l 7 763 l 118 675 l 114 0 l 394 0 z "},"2":{"ha":786,"x_min":0,"x_max":0,"o":"m 31 0 l 751 0 l 751 278 l 517 278 b 729 674 633 390 729 528 b 353 964 729 868 603 964 b 61 911 221 964 128 935 l 61 624 b 304 692 138 657 219 692 b 433 579 393 692 433 653 b 304 350 433 515 393 457 l 26 14 z "},"3":{"ha":790,"x_min":0,"x_max":0,"o":"m 51 -12 b 749 301 526 -12 749 94 b 544 518 749 397 718 492 b 739 731 690 568 739 656 b 401 964 739 889 626 964 b 76 913 268 964 161 944 l 76 642 b 358 697 164 678 263 697 b 468 639 433 697 468 679 b 186 547 468 594 431 571 l 194 393 b 392 408 275 403 339 408 b 475 358 454 408 475 389 b 51 254 475 310 389 256 z "},"4":{"ha":858,"x_min":0,"x_max":0,"o":"m 146 950 l 18 207 l 468 208 l 464 0 l 744 0 l 743 207 l 833 206 l 833 478 l 742 475 l 739 815 l 481 815 l 474 471 l 313 469 l 419 946 z "},"5":{"ha":797,"x_min":0,"x_max":0,"o":"m 725 946 l 103 946 l 104 392 b 379 418 219 407 307 418 b 472 363 442 418 472 403 b 51 258 472 319 425 258 l 51 -10 b 768 339 535 -10 768 122 b 515 568 768 478 700 568 b 354 549 451 568 400 561 l 353 675 l 725 675 z "},"6":{"ha":839,"x_min":0,"x_max":0,"o":"m 435 250 b 308 408 346 250 311 318 b 435 440 340 428 379 440 b 539 344 510 440 539 403 b 435 250 539 286 507 250 z m 422 -14 b 803 338 614 -14 803 90 b 561 583 803 510 710 583 b 319 511 474 583 383 558 b 731 689 351 632 463 679 l 731 960 b 29 369 315 947 29 746 b 422 -14 29 129 175 -14 z "},"7":{"ha":743,"x_min":0,"x_max":0,"o":"m 433 0 l 735 928 l 731 946 l 35 946 l 35 675 l 382 675 l 97 0 z "},"8":{"ha":824,"x_min":0,"x_max":0,"o":"m 440 563 b 317 633 354 574 317 592 b 431 708 317 675 356 708 b 542 636 501 708 542 685 b 499 553 542 604 524 578 b 440 563 481 557 460 560 z m 397 -14 b 814 286 638 -14 814 99 b 607 526 814 410 735 483 b 783 729 717 574 783 642 b 440 961 783 871 656 961 b 60 672 228 961 60 854 b 213 449 60 565 115 494 b 26 224 96 390 26 324 b 397 -14 26 79 165 -14 z m 422 246 b 278 339 329 246 278 269 b 303 417 278 367 288 393 b 414 394 336 407 374 400 b 560 311 515 379 560 361 b 422 246 560 269 508 246 z "},"9":{"ha":839,"x_min":0,"x_max":0,"o":"m 404 508 b 301 604 329 508 301 546 b 404 699 301 663 332 699 b 531 540 493 699 528 631 b 404 508 500 521 461 508 z m 103 -12 b 811 579 522 1 811 203 b 417 963 811 819 664 963 b 38 611 226 963 38 858 b 279 365 38 439 129 365 b 519 436 367 365 454 390 b 103 260 486 317 374 268 z "},"A":{"ha":976,"x_min":0,"x_max":0,"o":"m 588 960 l 390 960 l -18 0 l 275 0 l 317 125 l 638 125 l 679 0 l 993 0 z m 565 342 l 390 342 l 478 603 z "},"B":{"ha":828,"x_min":0,"x_max":0,"o":"m 449 243 b 328 244 408 243 367 243 l 328 386 b 451 388 368 388 407 388 b 544 317 504 388 544 371 b 449 243 544 265 511 243 z m 804 265 b 593 489 804 397 707 463 b 764 721 715 539 764 631 b 500 946 764 863 665 946 l 64 946 l 68 468 l 64 0 l 499 0 b 804 265 697 0 804 107 z m 442 571 b 328 571 403 571 364 571 l 328 706 b 436 706 371 706 411 706 b 526 644 506 706 526 682 b 442 571 526 594 496 571 z "},"C":{"ha":850,"x_min":0,"x_max":0,"o":"m 796 919 b 532 963 710 950 639 963 b 33 449 258 963 33 792 b 507 -17 33 153 217 -17 b 804 54 631 -17 718 8 l 804 342 b 547 269 733 301 633 269 b 319 465 392 269 319 347 b 561 678 319 596 406 678 b 796 628 664 678 738 653 z "},"D":{"ha":963,"x_min":0,"x_max":0,"o":"m 444 279 b 326 283 403 279 363 281 l 326 665 b 461 668 374 667 422 668 b 665 483 592 668 665 596 b 444 279 665 354 590 279 z m 64 0 b 453 -3 171 -1 390 -3 b 933 499 717 -3 933 165 b 476 950 933 788 757 950 b 63 946 349 950 193 947 l 68 468 z "},"E":{"ha":765,"x_min":0,"x_max":0,"o":"m 696 682 l 696 946 l 64 946 l 68 468 l 64 0 l 710 0 l 710 264 l 333 264 l 333 388 l 676 388 l 676 571 l 333 571 l 333 682 z "},"F":{"ha":738,"x_min":0,"x_max":0,"o":"m 676 682 l 676 946 l 64 946 l 68 468 l 64 0 l 336 0 l 335 293 l 657 293 l 657 529 l 333 529 l 333 682 z "},"G":{"ha":947,"x_min":0,"x_max":0,"o":"m 501 258 b 319 460 379 258 319 339 b 561 685 319 600 401 685 b 844 629 686 685 776 658 l 844 915 b 550 963 747 950 669 963 b 33 449 265 963 33 792 b 494 -19 33 150 211 -19 b 915 392 733 -19 915 104 b 907 549 915 428 913 504 l 492 549 l 492 364 l 671 364 b 501 258 656 293 596 258 z "},"H":{"ha":975,"x_min":0,"x_max":0,"o":"m 911 946 l 629 946 l 632 610 l 343 610 l 346 946 l 64 946 l 68 468 l 64 0 l 346 0 l 343 346 l 632 346 l 629 0 l 911 0 l 907 468 z "},"I":{"ha":410,"x_min":0,"x_max":0,"o":"m 346 946 l 64 946 l 68 468 l 64 0 l 346 0 l 342 468 z "},"J":{"ha":431,"x_min":0,"x_max":0,"o":"m 363 374 l 367 946 l 86 946 l 89 364 b -8 56 92 147 83 99 l 65 -178 b 363 374 253 -108 381 -33 z "},"K":{"ha":894,"x_min":0,"x_max":0,"o":"m 596 0 l 911 0 l 911 7 l 596 489 l 885 939 l 885 946 l 568 946 l 342 539 l 346 946 l 64 946 l 68 468 l 64 0 l 346 0 l 342 440 z "},"L":{"ha":676,"x_min":0,"x_max":0,"o":"m 346 946 l 64 946 l 68 468 l 64 0 l 650 0 l 650 264 l 343 264 l 342 468 z "},"M":{"ha":1240,"x_min":0,"x_max":0,"o":"m 893 0 l 1193 0 l 1125 946 l 814 946 l 642 515 l 443 946 l 122 946 l 47 0 l 350 0 l 343 542 l 610 -14 l 638 -14 l 893 542 z "},"N":{"ha":963,"x_min":0,"x_max":0,"o":"m 854 -14 l 894 -14 l 899 946 l 633 946 l 642 518 l 110 969 l 69 969 l 65 0 l 331 0 l 324 428 z "},"O":{"ha":1036,"x_min":0,"x_max":0,"o":"m 515 678 b 728 482 653 678 728 600 b 521 269 728 350 653 269 b 308 467 378 269 308 347 b 515 678 308 597 386 678 z m 522 965 b 31 454 253 965 31 796 b 514 -19 31 151 219 -19 b 1007 496 783 -19 1007 153 b 522 965 1007 797 819 965 z "},"P":{"ha":828,"x_min":0,"x_max":0,"o":"m 432 490 b 342 492 400 490 368 490 l 343 679 b 418 681 371 681 397 681 b 544 583 511 681 544 643 b 432 490 544 519 500 490 z m 450 257 b 807 633 639 257 807 378 b 468 946 807 824 668 946 l 64 946 l 68 468 l 64 0 l 346 0 l 343 258 b 450 257 375 257 410 257 z "},"Q":{"ha":1033,"x_min":0,"x_max":0,"o":"m 725 482 b 706 378 725 442 718 407 l 575 529 l 457 414 l 582 276 b 518 269 563 272 540 269 b 306 467 375 269 306 347 b 513 678 306 597 383 678 b 725 482 650 678 725 600 z m 28 454 b 481 -19 28 151 214 -19 b 738 60 571 -19 660 10 l 833 -89 l 1025 93 l 893 204 b 1004 508 963 294 1004 403 b 519 965 1004 801 817 965 b 28 454 250 965 28 796 z "},"R":{"ha":881,"x_min":0,"x_max":0,"o":"m 460 518 b 342 518 415 518 374 518 l 343 683 b 451 685 381 685 419 685 b 550 597 531 685 550 647 b 460 518 550 543 515 518 z m 578 0 l 896 0 l 896 7 l 685 365 b 819 653 769 421 819 518 b 494 946 819 819 721 946 l 64 946 l 68 468 l 64 0 l 346 0 l 343 314 b 428 308 369 311 397 310 z "},"S":{"ha":789,"x_min":0,"x_max":0,"o":"m 313 636 b 422 686 313 672 347 686 b 707 633 554 686 635 661 l 707 921 b 444 964 638 947 549 964 b 43 638 236 964 43 865 b 404 360 43 447 154 385 b 479 317 461 356 479 340 b 361 263 479 281 446 263 b 43 325 218 263 143 293 l 43 26 b 354 -17 139 -6 231 -17 b 754 321 564 -17 754 76 b 396 593 754 499 629 578 b 313 636 331 597 313 610 z "},"T":{"ha":774,"x_min":0,"x_max":0,"o":"m 35 946 l 35 668 l 250 668 l 244 0 l 526 0 l 521 668 l 740 668 l 740 946 z "},"U":{"ha":975,"x_min":0,"x_max":0,"o":"m 640 456 b 490 269 640 342 606 269 b 340 451 382 269 342 332 l 346 946 l 64 946 l 69 451 b 482 -21 63 146 185 -21 b 908 456 765 -21 913 133 l 914 946 l 635 946 z "},"V":{"ha":956,"x_min":0,"x_max":0,"o":"m 576 -14 l 983 946 l 686 946 l 494 358 l 288 946 l -28 946 l 379 -14 z "},"W":{"ha":1251,"x_min":0,"x_max":0,"o":"m 840 -7 l 1024 -7 l 1265 946 l 969 946 l 885 508 l 640 960 l 617 960 l 382 506 l 281 946 l -14 946 l 228 -7 l 424 -7 l 611 467 z "},"X":{"ha":922,"x_min":0,"x_max":0,"o":"m 611 0 l 939 0 l 939 8 l 688 483 l 917 938 l 917 946 l 597 946 l 469 600 l 332 946 l 6 946 l 6 938 l 235 483 l -18 8 l -18 0 l 306 0 l 453 374 z "},"Y":{"ha":888,"x_min":0,"x_max":0,"o":"m 589 0 l 582 358 l 906 938 l 906 946 l 608 946 l 458 567 l 294 946 l -18 946 l -18 938 l 314 351 l 308 0 z "},"Z":{"ha":935,"x_min":0,"x_max":0,"o":"m 886 0 l 886 264 l 485 264 l 889 932 l 883 946 l 93 946 l 93 682 l 429 682 l 24 14 l 29 0 z "},"a":{"ha":808,"x_min":0,"x_max":0,"o":"m 539 0 l 757 0 l 753 426 b 385 761 750 656 661 761 b 101 726 283 761 176 744 l 101 474 b 360 507 178 492 285 507 b 485 419 446 507 479 478 l 294 415 b 32 190 129 411 32 338 b 226 -21 32 51 121 -21 b 510 113 343 -21 425 29 z m 361 207 b 278 264 300 207 278 231 b 360 319 278 296 299 314 l 485 332 l 485 232 b 361 207 443 218 397 207 z "},"b":{"ha":853,"x_min":0,"x_max":0,"o":"m 413 239 b 336 246 389 239 361 242 l 333 478 b 422 501 356 492 385 501 b 561 367 525 501 561 444 b 413 239 561 282 511 239 z m 822 382 b 547 761 822 619 710 761 b 332 657 456 761 389 713 l 332 1032 l 51 1032 l 58 540 l 57 33 b 439 -19 218 -11 346 -19 b 822 382 660 -22 822 113 z "},"c":{"ha":618,"x_min":0,"x_max":0,"o":"m 567 746 b 428 763 504 760 467 763 b 26 354 203 763 26 628 b 421 -19 26 113 174 -19 b 576 10 476 -19 538 -10 l 576 275 b 433 243 538 254 483 243 b 286 371 333 242 286 293 b 429 500 286 451 338 500 b 567 474 481 500 535 489 z "},"d":{"ha":847,"x_min":0,"x_max":0,"o":"m 429 242 b 289 376 325 242 289 303 b 438 504 289 457 338 504 b 515 497 461 504 489 501 l 515 264 b 429 242 493 251 465 242 z m 788 519 l 788 1032 l 510 1032 l 514 718 b 350 761 467 744 408 761 b 29 361 171 761 29 638 b 303 -19 29 111 140 -19 b 546 113 408 -19 482 46 l 572 0 l 796 0 z "},"e":{"ha":806,"x_min":0,"x_max":0,"o":"m 413 536 b 526 432 475 536 521 507 l 281 419 b 413 536 290 496 331 536 z m 743 289 b 451 221 664 247 553 221 b 285 332 357 221 303 261 l 760 329 b 765 440 764 367 765 406 b 436 763 765 650 665 763 b 29 367 207 763 29 632 b 433 -19 29 118 178 -19 b 743 46 553 -19 667 8 z "},"f":{"ha":521,"x_min":0,"x_max":0,"o":"m 372 753 b 444 824 372 799 394 824 b 508 819 464 824 489 821 l 508 1039 b 424 1044 478 1042 453 1044 b 104 744 208 1044 113 953 l 19 744 l 19 488 l 103 488 l 101 0 l 379 0 l 375 488 l 508 488 l 508 744 l 372 744 z "},"g":{"ha":785,"x_min":0,"x_max":0,"o":"m 368 -69 b 229 -21 261 -69 229 -56 b 238 17 229 -11 232 4 b 510 21 372 18 482 21 b 554 -10 539 21 554 13 b 368 -69 554 -44 515 -69 z m 386 558 b 503 468 471 558 503 525 b 390 376 503 410 469 376 b 274 468 304 376 274 411 b 386 558 274 528 306 558 z m 793 6 b 585 179 793 118 736 179 b 293 169 492 179 340 169 b 268 190 275 169 268 178 b 278 225 268 200 272 210 b 383 217 311 219 346 217 b 742 503 589 217 742 304 b 646 700 742 592 707 657 b 782 829 692 746 740 790 l 606 954 b 519 751 564 897 538 822 b 390 764 481 760 438 764 b 31 476 197 764 31 678 b 175 254 31 369 83 296 b 47 100 86 196 47 150 b 100 26 47 72 63 42 b -10 -118 39 -12 -10 -62 b 338 -258 -10 -218 97 -258 b 793 6 622 -258 793 -194 z "},"h":{"ha":851,"x_min":0,"x_max":0,"o":"m 433 492 b 513 400 489 492 514 463 l 510 0 l 799 0 l 794 494 b 567 760 793 706 669 760 b 339 663 482 760 406 721 l 342 1032 l 51 1032 l 58 560 l 58 0 l 347 0 l 339 472 b 433 492 364 485 401 492 z "},"i":{"ha":392,"x_min":0,"x_max":0,"o":"m 194 1054 b 36 910 96 1054 36 1004 b 192 782 36 831 96 782 b 349 926 289 782 349 832 b 194 1054 349 1004 289 1054 z m 329 521 l 329 744 l 51 744 l 58 560 l 58 0 l 339 0 z "},"j":{"ha":393,"x_min":0,"x_max":0,"o":"m 196 1054 b 38 910 97 1054 38 1004 b 193 782 38 831 97 782 b 350 926 290 782 350 832 b 196 1054 350 1004 290 1054 z m 336 118 l 332 415 l 332 744 l 54 744 l 60 551 l 60 82 b -28 -12 60 25 44 1 l 8 -271 b 336 118 196 -237 342 -171 z "},"k":{"ha":831,"x_min":0,"x_max":0,"o":"m 329 549 l 329 1032 l 51 1032 l 58 589 l 58 0 l 339 0 l 333 350 l 525 0 l 854 0 l 854 7 l 589 385 l 833 738 l 833 744 l 510 744 l 332 417 z "},"l":{"ha":390,"x_min":0,"x_max":0,"o":"m 329 549 l 329 1032 l 51 1032 l 58 589 l 58 0 l 339 0 z "},"m":{"ha":1238,"x_min":0,"x_max":0,"o":"m 408 492 b 478 400 457 492 479 463 l 475 0 l 757 0 l 753 471 b 836 492 775 482 807 492 b 906 400 883 492 906 463 l 901 0 l 1185 0 l 1181 494 b 965 760 1178 706 1063 760 b 728 635 875 760 797 707 b 539 760 689 732 608 760 b 303 638 449 760 372 707 l 278 744 l 51 744 l 58 560 l 58 0 l 340 0 l 332 474 b 408 492 353 483 383 492 z "},"n":{"ha":838,"x_min":0,"x_max":0,"o":"m 425 492 b 504 400 481 492 506 463 l 501 0 l 783 0 l 779 494 b 558 760 778 706 658 760 b 301 636 461 760 375 708 l 276 744 l 50 744 l 57 560 l 57 0 l 339 0 l 331 472 b 425 492 356 485 393 492 z "},"o":{"ha":854,"x_min":0,"x_max":0,"o":"m 425 503 b 565 374 517 503 565 453 b 429 243 565 292 518 243 b 289 374 333 242 289 293 b 425 503 289 454 338 503 z m 431 765 b 29 356 214 765 29 628 b 424 -19 29 117 185 -19 b 825 392 642 -19 825 118 b 431 765 825 629 671 765 z "},"p":{"ha":849,"x_min":0,"x_max":0,"o":"m 411 239 b 333 246 388 239 360 242 l 329 476 b 421 501 353 490 382 501 b 561 368 525 501 561 440 b 411 239 561 286 511 239 z m 500 -18 b 821 383 678 -18 821 106 b 546 763 821 632 708 763 b 304 632 440 763 367 697 l 278 744 l 51 744 l 58 403 l 58 -237 l 340 -237 l 336 25 b 500 -18 383 -1 442 -18 z "},"q":{"ha":851,"x_min":0,"x_max":0,"o":"m 429 242 b 289 376 325 242 289 303 b 438 504 289 457 339 504 b 515 497 461 504 489 501 l 515 264 b 429 242 493 251 465 242 z m 792 -237 l 789 439 l 793 744 l 774 756 l 556 690 b 350 761 504 733 428 761 b 29 361 171 761 29 638 b 303 -19 29 111 140 -19 b 515 81 392 -19 458 26 l 513 -237 z "},"r":{"ha":553,"x_min":0,"x_max":0,"o":"m 538 750 b 494 754 526 751 506 754 b 319 583 419 754 363 692 l 276 744 l 50 744 l 57 560 l 57 0 l 346 0 l 338 428 b 538 456 375 446 440 456 z "},"s":{"ha":701,"x_min":0,"x_max":0,"o":"m 281 496 b 351 529 281 518 301 529 b 636 475 471 529 568 504 l 636 724 b 382 763 565 747 486 763 b 38 501 207 763 38 682 b 375 285 38 346 140 303 b 422 254 410 282 422 271 b 344 221 422 233 400 221 b 38 268 208 221 135 240 l 38 24 b 328 -12 124 1 213 -12 b 675 244 510 -12 675 65 b 333 467 675 396 556 453 b 281 496 294 469 281 479 z "},"t":{"ha":556,"x_min":0,"x_max":0,"o":"m 513 8 l 513 265 b 432 254 494 261 456 254 b 354 333 379 254 354 268 l 354 488 l 514 488 l 514 744 l 356 744 l 360 924 l 281 924 l 107 710 l 18 649 l 18 488 l 90 488 l 88 283 b 361 -12 85 57 192 -12 b 513 8 415 -12 479 -3 z "},"u":{"ha":838,"x_min":0,"x_max":0,"o":"m 558 0 l 783 0 l 778 228 l 778 744 l 496 744 l 503 272 b 410 253 478 261 442 253 b 329 344 353 253 329 283 l 333 744 l 50 744 l 54 251 b 276 -15 57 39 175 -15 b 532 110 372 -15 458 38 z "},"v":{"ha":790,"x_min":0,"x_max":0,"o":"m 475 -14 l 810 744 l 519 744 l 407 378 l 285 744 l -21 744 l 315 -14 z "},"w":{"ha":1054,"x_min":0,"x_max":0,"o":"m 717 -7 l 883 -7 l 1075 744 l 814 744 l 749 436 l 539 765 l 518 765 l 313 429 l 243 744 l -21 744 l 171 -7 l 349 -7 l 513 329 z "},"x":{"ha":814,"x_min":0,"x_max":0,"o":"m 526 0 l 825 0 l 825 8 l 621 379 l 807 736 l 807 744 l 514 744 l 413 476 l 304 744 l 7 744 l 7 736 l 193 379 l -11 8 l -11 0 l 283 0 l 400 290 z "},"y":{"ha":789,"x_min":0,"x_max":0,"o":"m 122 -254 b 499 24 294 -254 411 -178 l 810 744 l 522 744 l 413 367 l 286 744 l -21 744 l 272 71 b 86 17 219 35 163 17 b 22 19 60 17 39 18 l 22 -242 b 122 -254 44 -251 83 -254 z "},"z":{"ha":782,"x_min":0,"x_max":0,"o":"m 732 0 l 732 258 l 451 258 l 747 735 l 742 744 l 82 744 l 82 488 l 317 488 l 21 11 l 26 0 z "},".":{"ha":431,"x_min":0,"x_max":0,"o":"m 214 -14 b 389 172 307 -14 389 53 b 217 336 389 272 319 336 b 42 153 122 336 42 272 b 214 -14 42 50 110 -14 z "},",":{"ha":431,"x_min":0,"x_max":0,"o":"m 18 -175 l 207 -194 l 399 315 l 74 326 z "}," ":{"ha":333,"x_min":0,"x_max":0,"o":""}," ":{"ha":333,"x_min":0,"x_max":0,"o":""}}}
